<svg width="201" height="47" viewBox="0 0 201 47" fill="none" xmlns="http://www.w3.org/2000/svg">
<rect width="201" height="47" fill="white"/>
<path d="M99.66 8.144C99.468 7.792 99.204 7.524 98.868 7.34C98.532 7.156 98.14 7.064 97.692 7.064C97.196 7.064 96.756 7.176 96.372 7.4C95.988 7.624 95.688 7.944 95.472 8.36C95.256 8.776 95.148 9.256 95.148 9.8C95.148 10.36 95.256 10.848 95.472 11.264C95.696 11.68 96.004 12 96.396 12.224C96.788 12.448 97.244 12.56 97.764 12.56C98.404 12.56 98.928 12.392 99.336 12.056C99.744 11.712 100.012 11.236 100.14 10.628H97.26V9.344H101.796V10.808C101.684 11.392 101.444 11.932 101.076 12.428C100.708 12.924 100.232 13.324 99.648 13.628C99.072 13.924 98.424 14.072 97.704 14.072C96.896 14.072 96.164 13.892 95.508 13.532C94.86 13.164 94.348 12.656 93.972 12.008C93.604 11.36 93.42 10.624 93.42 9.8C93.42 8.976 93.604 8.24 93.972 7.592C94.348 6.936 94.86 6.428 95.508 6.068C96.164 5.7 96.892 5.516 97.692 5.516C98.636 5.516 99.456 5.748 100.152 6.212C100.848 6.668 101.328 7.312 101.592 8.144H99.66ZM106.927 14.084C106.143 14.084 105.423 13.9 104.767 13.532C104.111 13.164 103.591 12.656 103.207 12.008C102.823 11.352 102.631 10.612 102.631 9.788C102.631 8.972 102.823 8.24 103.207 7.592C103.591 6.936 104.111 6.424 104.767 6.056C105.423 5.688 106.143 5.504 106.927 5.504C107.719 5.504 108.439 5.688 109.087 6.056C109.743 6.424 110.259 6.936 110.635 7.592C111.019 8.24 111.211 8.972 111.211 9.788C111.211 10.612 111.019 11.352 110.635 12.008C110.259 12.656 109.743 13.164 109.087 13.532C108.431 13.9 107.711 14.084 106.927 14.084ZM106.927 12.584C107.431 12.584 107.875 12.472 108.259 12.248C108.643 12.016 108.943 11.688 109.159 11.264C109.375 10.84 109.483 10.348 109.483 9.788C109.483 9.228 109.375 8.74 109.159 8.324C108.943 7.9 108.643 7.576 108.259 7.352C107.875 7.128 107.431 7.016 106.927 7.016C106.423 7.016 105.975 7.128 105.583 7.352C105.199 7.576 104.899 7.9 104.683 8.324C104.467 8.74 104.359 9.228 104.359 9.788C104.359 10.348 104.467 10.84 104.683 11.264C104.899 11.688 105.199 12.016 105.583 12.248C105.975 12.472 106.423 12.584 106.927 12.584ZM115.389 5.624C116.269 5.624 117.041 5.796 117.705 6.14C118.377 6.484 118.893 6.976 119.253 7.616C119.621 8.248 119.805 8.984 119.805 9.824C119.805 10.664 119.621 11.4 119.253 12.032C118.893 12.656 118.377 13.14 117.705 13.484C117.041 13.828 116.269 14 115.389 14H112.461V5.624H115.389ZM115.329 12.572C116.209 12.572 116.889 12.332 117.369 11.852C117.849 11.372 118.089 10.696 118.089 9.824C118.089 8.952 117.849 8.272 117.369 7.784C116.889 7.288 116.209 7.04 115.329 7.04H114.141V12.572H115.329ZM126.198 12.404H122.862L122.31 14H120.546L123.558 5.612H125.514L128.526 14H126.75L126.198 12.404ZM125.742 11.06L124.53 7.556L123.318 11.06H125.742ZM132.58 5.624C133.46 5.624 134.232 5.796 134.896 6.14C135.568 6.484 136.084 6.976 136.444 7.616C136.812 8.248 136.996 8.984 136.996 9.824C136.996 10.664 136.812 11.4 136.444 12.032C136.084 12.656 135.568 13.14 134.896 13.484C134.232 13.828 133.46 14 132.58 14H129.652V5.624H132.58ZM132.52 12.572C133.4 12.572 134.08 12.332 134.56 11.852C135.04 11.372 135.28 10.696 135.28 9.824C135.28 8.952 135.04 8.272 134.56 7.784C134.08 7.288 133.4 7.04 132.52 7.04H131.332V12.572H132.52ZM141.182 5.624C142.062 5.624 142.834 5.796 143.498 6.14C144.17 6.484 144.686 6.976 145.046 7.616C145.414 8.248 145.598 8.984 145.598 9.824C145.598 10.664 145.414 11.4 145.046 12.032C144.686 12.656 144.17 13.14 143.498 13.484C142.834 13.828 142.062 14 141.182 14H138.254V5.624H141.182ZM141.122 12.572C142.002 12.572 142.682 12.332 143.162 11.852C143.642 11.372 143.882 10.696 143.882 9.824C143.882 8.952 143.642 8.272 143.162 7.784C142.682 7.288 142.002 7.04 141.122 7.04H139.934V12.572H141.122ZM153.515 5.624L150.683 11.084V14H149.003V11.084L146.159 5.624H148.055L149.855 9.452L151.643 5.624H153.515Z" fill="#96CF30"/>
<path d="M62.744 19.228L59.16 29H56.78L53.196 19.228H55.296L57.984 26.998L60.658 19.228H62.744ZM65.8791 20.81V23.26H69.1691V24.814H65.8791V27.404H69.5891V29H63.9191V19.214H69.5891V20.81H65.8791ZM76.4103 29L74.2543 25.192H73.3303V29H71.3703V19.228H75.0383C75.7943 19.228 76.4383 19.3633 76.9703 19.634C77.5023 19.8953 77.899 20.2547 78.1603 20.712C78.431 21.16 78.5663 21.664 78.5663 22.224C78.5663 22.868 78.3796 23.4513 78.0063 23.974C77.633 24.4873 77.0776 24.842 76.3403 25.038L78.6783 29H76.4103ZM73.3303 23.722H74.9683C75.5003 23.722 75.897 23.596 76.1583 23.344C76.4196 23.0827 76.5503 22.7233 76.5503 22.266C76.5503 21.818 76.4196 21.4727 76.1583 21.23C75.897 20.978 75.5003 20.852 74.9683 20.852H73.3303V23.722ZM82.299 19.228V29H80.339V19.228H82.299ZM90.2695 19.228V20.81H86.1955V23.316H89.3175V24.87H86.1955V29H84.2355V19.228H90.2695ZM93.6194 19.228V29H91.6594V19.228H93.6194ZM97.5158 20.81V23.26H100.806V24.814H97.5158V27.404H101.226V29H95.5558V19.214H101.226V20.81H97.5158ZM106.423 19.228C107.45 19.228 108.35 19.4287 109.125 19.83C109.909 20.2313 110.511 20.8053 110.931 21.552C111.36 22.2893 111.575 23.148 111.575 24.128C111.575 25.108 111.36 25.9667 110.931 26.704C110.511 27.432 109.909 27.9967 109.125 28.398C108.35 28.7993 107.45 29 106.423 29H103.007V19.228H106.423ZM106.353 27.334C107.38 27.334 108.173 27.054 108.733 26.494C109.293 25.934 109.573 25.1453 109.573 24.128C109.573 23.1107 109.293 22.3173 108.733 21.748C108.173 21.1693 107.38 20.88 106.353 20.88H104.967V27.334H106.353ZM123.896 29L122.832 27.95C121.927 28.762 120.821 29.168 119.514 29.168C118.795 29.168 118.161 29.0467 117.61 28.804C117.069 28.552 116.649 28.202 116.35 27.754C116.051 27.2967 115.902 26.7693 115.902 26.172C115.902 25.528 116.084 24.9493 116.448 24.436C116.812 23.9227 117.349 23.5073 118.058 23.19C117.806 22.882 117.624 22.588 117.512 22.308C117.4 22.0187 117.344 21.7107 117.344 21.384C117.344 20.936 117.461 20.5347 117.694 20.18C117.927 19.816 118.259 19.5313 118.688 19.326C119.127 19.1207 119.635 19.018 120.214 19.018C120.802 19.018 121.306 19.13 121.726 19.354C122.146 19.578 122.459 19.8767 122.664 20.25C122.869 20.6233 122.958 21.0387 122.93 21.496H121.026C121.035 21.188 120.961 20.9547 120.802 20.796C120.643 20.628 120.429 20.544 120.158 20.544C119.897 20.544 119.677 20.6233 119.5 20.782C119.332 20.9313 119.248 21.1273 119.248 21.37C119.248 21.6033 119.318 21.8367 119.458 22.07C119.598 22.294 119.827 22.574 120.144 22.91L122.608 25.346C122.627 25.3273 122.641 25.3087 122.65 25.29C122.659 25.2713 122.669 25.2527 122.678 25.234L123.476 23.904H125.52L124.54 25.626C124.353 25.99 124.153 26.3353 123.938 26.662L126.304 29H123.896ZM119.57 27.544C120.335 27.544 121.012 27.2733 121.6 26.732L119.192 24.352C118.287 24.7533 117.834 25.3227 117.834 26.06C117.834 26.48 117.993 26.8347 118.31 27.124C118.627 27.404 119.047 27.544 119.57 27.544ZM133.985 29.098C133.303 29.098 132.687 28.9813 132.137 28.748C131.595 28.5147 131.166 28.1787 130.849 27.74C130.531 27.3013 130.368 26.7833 130.359 26.186H132.459C132.487 26.5873 132.627 26.9047 132.879 27.138C133.14 27.3713 133.495 27.488 133.943 27.488C134.4 27.488 134.759 27.3807 135.021 27.166C135.282 26.942 135.413 26.6527 135.413 26.298C135.413 26.0087 135.324 25.7707 135.147 25.584C134.969 25.3973 134.745 25.2527 134.475 25.15C134.213 25.038 133.849 24.9167 133.383 24.786C132.748 24.5993 132.23 24.4173 131.829 24.24C131.437 24.0533 131.096 23.778 130.807 23.414C130.527 23.0407 130.387 22.546 130.387 21.93C130.387 21.3513 130.531 20.8473 130.821 20.418C131.11 19.9887 131.516 19.662 132.039 19.438C132.561 19.2047 133.159 19.088 133.831 19.088C134.839 19.088 135.655 19.3353 136.281 19.83C136.915 20.3153 137.265 20.9967 137.331 21.874H135.175C135.156 21.538 135.011 21.2627 134.741 21.048C134.479 20.824 134.129 20.712 133.691 20.712C133.308 20.712 133 20.81 132.767 21.006C132.543 21.202 132.431 21.4867 132.431 21.86C132.431 22.1213 132.515 22.3407 132.683 22.518C132.86 22.686 133.075 22.826 133.327 22.938C133.588 23.0407 133.952 23.162 134.419 23.302C135.053 23.4887 135.571 23.6753 135.973 23.862C136.374 24.0487 136.719 24.3287 137.009 24.702C137.298 25.0753 137.443 25.5653 137.443 26.172C137.443 26.6947 137.307 27.18 137.037 27.628C136.766 28.076 136.369 28.4353 135.847 28.706C135.324 28.9673 134.703 29.098 133.985 29.098ZM141.102 20.81V23.26H144.392V24.814H141.102V27.404H144.812V29H139.142V19.214H144.812V20.81H141.102ZM146.117 24.1C146.117 23.1387 146.332 22.28 146.761 21.524C147.2 20.7587 147.792 20.166 148.539 19.746C149.295 19.3167 150.14 19.102 151.073 19.102C152.165 19.102 153.122 19.382 153.943 19.942C154.764 20.502 155.338 21.2767 155.665 22.266H153.411C153.187 21.7993 152.87 21.4493 152.459 21.216C152.058 20.9827 151.591 20.866 151.059 20.866C150.49 20.866 149.981 21.0013 149.533 21.272C149.094 21.5333 148.749 21.9067 148.497 22.392C148.254 22.8773 148.133 23.4467 148.133 24.1C148.133 24.744 148.254 25.3133 148.497 25.808C148.749 26.2933 149.094 26.6713 149.533 26.942C149.981 27.2033 150.49 27.334 151.059 27.334C151.591 27.334 152.058 27.2173 152.459 26.984C152.87 26.7413 153.187 26.3867 153.411 25.92H155.665C155.338 26.9187 154.764 27.698 153.943 28.258C153.131 28.8087 152.174 29.084 151.073 29.084C150.14 29.084 149.295 28.874 148.539 28.454C147.792 28.0247 147.2 27.432 146.761 26.676C146.332 25.92 146.117 25.0613 146.117 24.1ZM159.271 19.228V25.276C159.271 25.9387 159.444 26.4473 159.789 26.802C160.134 27.1473 160.62 27.32 161.245 27.32C161.88 27.32 162.37 27.1473 162.715 26.802C163.06 26.4473 163.233 25.9387 163.233 25.276V19.228H165.207V25.262C165.207 26.0927 165.025 26.7973 164.661 27.376C164.306 27.9453 163.826 28.3747 163.219 28.664C162.622 28.9533 161.954 29.098 161.217 29.098C160.489 29.098 159.826 28.9533 159.229 28.664C158.641 28.3747 158.174 27.9453 157.829 27.376C157.484 26.7973 157.311 26.0927 157.311 25.262V19.228H159.271ZM172.141 29L169.985 25.192H169.061V29H167.101V19.228H170.769C171.525 19.228 172.169 19.3633 172.701 19.634C173.233 19.8953 173.629 20.2547 173.891 20.712C174.161 21.16 174.297 21.664 174.297 22.224C174.297 22.868 174.11 23.4513 173.737 23.974C173.363 24.4873 172.808 24.842 172.071 25.038L174.409 29H172.141ZM169.061 23.722H170.699C171.231 23.722 171.627 23.596 171.889 23.344C172.15 23.0827 172.281 22.7233 172.281 22.266C172.281 21.818 172.15 21.4727 171.889 21.23C171.627 20.978 171.231 20.852 170.699 20.852H169.061V23.722ZM178.03 20.81V23.26H181.32V24.814H178.03V27.404H181.74V29H176.07V19.214H181.74V20.81H178.03ZM186.937 19.228C187.963 19.228 188.864 19.4287 189.639 19.83C190.423 20.2313 191.025 20.8053 191.445 21.552C191.874 22.2893 192.089 23.148 192.089 24.128C192.089 25.108 191.874 25.9667 191.445 26.704C191.025 27.432 190.423 27.9967 189.639 28.398C188.864 28.7993 187.963 29 186.937 29H183.521V19.228H186.937ZM186.867 27.334C187.893 27.334 188.687 27.054 189.247 26.494C189.807 25.934 190.087 25.1453 190.087 24.128C190.087 23.1107 189.807 22.3173 189.247 21.748C188.687 21.1693 187.893 20.88 186.867 20.88H185.481V27.334H186.867Z" fill="#666666"/>
<path d="M84.568 34.416L82.52 40H81.16L79.112 34.416H80.312L81.848 38.856L83.376 34.416H84.568ZM86.3595 35.32V36.72H88.2395V37.608H86.3595V39.088H88.4795V40H85.2395V34.408H88.4795V35.32H86.3595ZM92.3773 40L91.1453 37.824H90.6173V40H89.4973V34.416H91.5933C92.0253 34.416 92.3933 34.4933 92.6973 34.648C93.0013 34.7973 93.228 35.0027 93.3773 35.264C93.532 35.52 93.6093 35.808 93.6093 36.128C93.6093 36.496 93.5026 36.8293 93.2893 37.128C93.076 37.4213 92.7586 37.624 92.3373 37.736L93.6733 40H92.3773ZM90.6173 36.984H91.5533C91.8573 36.984 92.084 36.912 92.2333 36.768C92.3826 36.6187 92.4573 36.4133 92.4573 36.152C92.4573 35.896 92.3826 35.6987 92.2333 35.56C92.084 35.416 91.8573 35.344 91.5533 35.344H90.6173V36.984ZM95.7423 34.416V40H94.6223V34.416H95.7423ZM100.297 34.416V35.32H97.9689V36.752H99.7529V37.64H97.9689V40H96.8489V34.416H100.297ZM105.531 34.416L103.643 38.056V40H102.523V38.056L100.627 34.416H101.891L103.091 36.968L104.283 34.416H105.531ZM110.011 40.056C109.622 40.056 109.27 39.9893 108.955 39.856C108.646 39.7227 108.401 39.5307 108.219 39.28C108.038 39.0293 107.945 38.7333 107.939 38.392H109.139C109.155 38.6213 109.235 38.8027 109.379 38.936C109.529 39.0693 109.731 39.136 109.987 39.136C110.249 39.136 110.454 39.0747 110.603 38.952C110.753 38.824 110.827 38.6587 110.827 38.456C110.827 38.2907 110.777 38.1547 110.675 38.048C110.574 37.9413 110.446 37.8587 110.291 37.8C110.142 37.736 109.934 37.6667 109.667 37.592C109.305 37.4853 109.009 37.3813 108.779 37.28C108.555 37.1733 108.361 37.016 108.195 36.808C108.035 36.5947 107.955 36.312 107.955 35.96C107.955 35.6293 108.038 35.3413 108.203 35.096C108.369 34.8507 108.601 34.664 108.899 34.536C109.198 34.4027 109.539 34.336 109.923 34.336C110.499 34.336 110.966 34.4773 111.323 34.76C111.686 35.0373 111.886 35.4267 111.923 35.928H110.691C110.681 35.736 110.598 35.5787 110.443 35.456C110.294 35.328 110.094 35.264 109.843 35.264C109.625 35.264 109.449 35.32 109.315 35.432C109.187 35.544 109.123 35.7067 109.123 35.92C109.123 36.0693 109.171 36.1947 109.267 36.296C109.369 36.392 109.491 36.472 109.635 36.536C109.785 36.5947 109.993 36.664 110.259 36.744C110.622 36.8507 110.918 36.9573 111.147 37.064C111.377 37.1707 111.574 37.3307 111.739 37.544C111.905 37.7573 111.987 38.0373 111.987 38.384C111.987 38.6827 111.91 38.96 111.755 39.216C111.601 39.472 111.374 39.6773 111.075 39.832C110.777 39.9813 110.422 40.056 110.011 40.056ZM114.078 35.32V36.72H115.958V37.608H114.078V39.088H116.198V40H112.958V34.408H116.198V35.32H114.078ZM116.944 37.2C116.944 36.6507 117.067 36.16 117.312 35.728C117.563 35.2907 117.901 34.952 118.328 34.712C118.76 34.4667 119.243 34.344 119.776 34.344C120.4 34.344 120.947 34.504 121.416 34.824C121.885 35.144 122.213 35.5867 122.4 36.152H121.112C120.984 35.8853 120.803 35.6853 120.568 35.552C120.339 35.4187 120.072 35.352 119.768 35.352C119.443 35.352 119.152 35.4293 118.896 35.584C118.645 35.7333 118.448 35.9467 118.304 36.224C118.165 36.5013 118.096 36.8267 118.096 37.2C118.096 37.568 118.165 37.8933 118.304 38.176C118.448 38.4533 118.645 38.6693 118.896 38.824C119.152 38.9733 119.443 39.048 119.768 39.048C120.072 39.048 120.339 38.9813 120.568 38.848C120.803 38.7093 120.984 38.5067 121.112 38.24H122.4C122.213 38.8107 121.885 39.256 121.416 39.576C120.952 39.8907 120.405 40.048 119.776 40.048C119.243 40.048 118.76 39.928 118.328 39.688C117.901 39.4427 117.563 39.104 117.312 38.672C117.067 38.24 116.944 37.7493 116.944 37.2ZM124.461 34.416V37.872C124.461 38.2507 124.559 38.5413 124.757 38.744C124.954 38.9413 125.231 39.04 125.589 39.04C125.951 39.04 126.231 38.9413 126.429 38.744C126.626 38.5413 126.725 38.2507 126.725 37.872V34.416H127.853V37.864C127.853 38.3387 127.749 38.7413 127.541 39.072C127.338 39.3973 127.063 39.6427 126.717 39.808C126.375 39.9733 125.994 40.056 125.573 40.056C125.157 40.056 124.778 39.9733 124.437 39.808C124.101 39.6427 123.834 39.3973 123.637 39.072C123.439 38.7413 123.341 38.3387 123.341 37.864V34.416H124.461ZM131.815 40L130.583 37.824H130.055V40H128.935V34.416H131.031C131.463 34.416 131.831 34.4933 132.135 34.648C132.439 34.7973 132.665 35.0027 132.815 35.264C132.969 35.52 133.047 35.808 133.047 36.128C133.047 36.496 132.94 36.8293 132.727 37.128C132.513 37.4213 132.196 37.624 131.775 37.736L133.111 40H131.815ZM130.055 36.984H130.991C131.295 36.984 131.521 36.912 131.671 36.768C131.82 36.6187 131.895 36.4133 131.895 36.152C131.895 35.896 131.82 35.6987 131.671 35.56C131.521 35.416 131.295 35.344 130.991 35.344H130.055V36.984ZM135.18 34.416V40H134.06V34.416H135.18ZM140.086 34.416V35.32H138.598V40H137.478V35.32H135.99V34.416H140.086ZM145.344 34.416L143.456 38.056V40H142.336V38.056L140.44 34.416H141.704L142.904 36.968L144.096 34.416H145.344ZM152.528 34.416V40H151.408V37.624H149.016V40H147.896V34.416H149.016V36.712H151.408V34.416H152.528ZM154.75 35.32V36.72H156.63V37.608H154.75V39.088H156.87V40H153.63V34.408H156.87V35.32H154.75ZM160.768 40L159.536 37.824H159.008V40H157.888V34.416H159.984C160.416 34.416 160.784 34.4933 161.088 34.648C161.392 34.7973 161.619 35.0027 161.768 35.264C161.923 35.52 162 35.808 162 36.128C162 36.496 161.893 36.8293 161.68 37.128C161.467 37.4213 161.149 37.624 160.728 37.736L162.064 40H160.768ZM159.008 36.984H159.944C160.248 36.984 160.475 36.912 160.624 36.768C160.773 36.6187 160.848 36.4133 160.848 36.152C160.848 35.896 160.773 35.6987 160.624 35.56C160.475 35.416 160.248 35.344 159.944 35.344H159.008V36.984ZM164.133 35.32V36.72H166.013V37.608H164.133V39.088H166.253V40H163.013V34.408H166.253V35.32H164.133Z" fill="#666666"/>
<rect x="5" y="3" width="41" height="41" rx="4" fill="url(#paint0_linear)"/>
<path d="M30.8571 19.2778V21.3889C32.0357 21.3889 33 22.3389 33 23.5V30.8889C33 32.05 32.0357 33 30.8571 33H20.1429C18.9643 33 18 32.05 18 30.8889V23.5C18 22.3389 18.9643 21.3889 20.1429 21.3889V19.2778C20.1429 16.3644 22.5429 14 25.5 14C28.4571 14 30.8571 16.3644 30.8571 19.2778ZM23.3571 19.2778V21.3889H27.6429V19.2778C27.6429 18.1167 26.6786 17.1667 25.5 17.1667C24.3214 17.1667 23.3571 18.1167 23.3571 19.2778ZM26.3571 30.0972V27.8067C27.1071 27.4794 27.6429 26.7406 27.6429 25.875C27.6429 24.7139 26.6786 23.7639 25.5 23.7639C24.3214 23.7639 23.3571 24.7139 23.3571 25.875C23.3571 26.7406 23.8929 27.4794 24.6429 27.8067V30.0972H26.3571Z" fill="white"/>
<defs>
<linearGradient id="paint0_linear" x1="25.5" y1="3" x2="25.5" y2="44" gradientUnits="userSpaceOnUse">
<stop stop-color="#C2FF54"/>
<stop offset="1" stop-color="#8FC72A"/>
</linearGradient>
</defs>
</svg>
