<svg width="201" height="47" viewBox="0 0 201 47" fill="none" xmlns="http://www.w3.org/2000/svg">
<rect width="201" height="47" fill="white"/>
<rect x="26" y="2" width="42.2541" height="43" rx="4" fill="#8DC73D"/>
<path d="M74.865 11.8495H70.3501V9.14201H82.6451V11.8495H78.1302V23.5001H74.865V11.8495Z" fill="#222222"/>
<path d="M92.5851 23.5001L89.8641 19.5003H86.8609V23.5001H83.5957V9.14201H89.7029C90.9525 9.14201 92.0342 9.35396 92.9479 9.77787C93.8751 10.2018 94.5872 10.8034 95.0844 11.5829C95.5816 12.3623 95.8302 13.2853 95.8302 14.3519C95.8302 15.4185 95.5749 16.3415 95.0643 17.121C94.5671 17.8867 93.8549 18.4747 92.9278 18.885L96.0922 23.5001H92.5851ZM92.5246 14.3519C92.5246 13.5451 92.2693 12.9298 91.7587 12.5059C91.2481 12.0683 90.5024 11.8495 89.5215 11.8495H86.8609V16.8543H89.5215C90.5024 16.8543 91.2481 16.6355 91.7587 16.198C92.2693 15.7604 92.5246 15.145 92.5246 14.3519Z" fill="#222222"/>
<path d="M103.879 23.7462C101.864 23.7462 100.292 23.1787 99.163 22.0437C98.0477 20.9088 97.49 19.2884 97.49 17.1825V9.14201H100.755V17.0594C100.755 19.6302 101.803 20.9156 103.9 20.9156C104.921 20.9156 105.7 20.6079 106.238 19.9926C106.775 19.3636 107.044 18.3859 107.044 17.0594V9.14201H110.269V17.1825C110.269 19.2884 109.704 20.9088 108.576 22.0437C107.46 23.1787 105.895 23.7462 103.879 23.7462Z" fill="#222222"/>
<path d="M117.325 23.7462C116.21 23.7462 115.128 23.5958 114.08 23.2949C113.045 22.9804 112.212 22.577 111.581 22.0848L112.689 19.5824C113.294 20.0336 114.013 20.396 114.846 20.6695C115.679 20.943 116.512 21.0797 117.345 21.0797C118.272 21.0797 118.958 20.943 119.401 20.6695C119.844 20.3823 120.066 20.0063 120.066 19.5413C120.066 19.1995 119.932 18.9192 119.663 18.7004C119.408 18.4679 119.072 18.2833 118.655 18.1466C118.252 18.0098 117.701 17.8594 117.002 17.6953C115.927 17.4355 115.047 17.1757 114.362 16.9159C113.677 16.6561 113.086 16.239 112.588 15.6647C112.105 15.0903 111.863 14.3246 111.863 13.3674C111.863 12.5332 112.084 11.7812 112.528 11.1111C112.971 10.4274 113.636 9.88726 114.523 9.49071C115.424 9.09415 116.519 8.89587 117.809 8.89587C118.709 8.89587 119.589 9.00527 120.449 9.22406C121.309 9.44285 122.062 9.75736 122.707 10.1676L121.699 12.6905C120.395 11.9384 119.092 11.5624 117.789 11.5624C116.875 11.5624 116.196 11.7128 115.753 12.0136C115.323 12.3145 115.108 12.711 115.108 13.2033C115.108 13.6956 115.356 14.0648 115.854 14.3109C116.364 14.5434 117.137 14.7758 118.171 15.0083C119.246 15.2681 120.127 15.5279 120.812 15.7877C121.497 16.0475 122.082 16.4578 122.565 17.0184C123.063 17.5791 123.311 18.338 123.311 19.2952C123.311 20.1157 123.083 20.8678 122.626 21.5515C122.182 22.2215 121.511 22.7548 120.61 23.1514C119.71 23.5479 118.615 23.7462 117.325 23.7462Z" fill="#222222"/>
<path d="M127.462 11.8495H122.947V9.14201H135.242V11.8495H130.727V23.5001H127.462V11.8495Z" fill="#222222"/>
<path d="M145.491 18.0235C145.491 18.0645 145.47 18.3517 145.43 18.885H137.227C137.375 19.5687 137.724 20.1088 138.275 20.5054C138.826 20.9019 139.511 21.1002 140.331 21.1002C140.895 21.1002 141.392 21.0182 141.822 20.8541C142.266 20.6763 142.676 20.4028 143.052 20.0336L144.725 21.8797C143.703 23.0693 142.212 23.6642 140.25 23.6642C139.027 23.6642 137.946 23.4248 137.005 22.9462C136.064 22.454 135.339 21.7771 134.828 20.9156C134.318 20.0541 134.062 19.0764 134.062 17.9825C134.062 16.9022 134.311 15.9313 134.808 15.0698C135.319 14.1947 136.011 13.5178 136.884 13.0392C137.771 12.5469 138.759 12.3008 139.847 12.3008C140.909 12.3008 141.869 12.5332 142.729 12.9982C143.589 13.4631 144.261 14.1331 144.745 15.0083C145.242 15.8698 145.491 16.8748 145.491 18.0235ZM139.867 14.7211C139.155 14.7211 138.557 14.9263 138.073 15.3365C137.59 15.7467 137.294 16.3074 137.186 17.0184H142.528C142.42 16.321 142.125 15.7672 141.641 15.357C141.157 14.9331 140.566 14.7211 139.867 14.7211Z" fill="#222222"/>
<path d="M77.1929 35.4288C76.4353 35.4288 75.7505 35.2583 75.1385 34.9172C74.5338 34.5762 74.0567 34.1054 73.707 33.5049C73.3646 32.897 73.1934 32.2186 73.1934 31.4698C73.1934 30.721 73.3646 30.0464 73.707 29.4459C74.0567 28.8379 74.5375 28.3635 75.1494 28.0224C75.7614 27.6814 76.4462 27.5109 77.2039 27.5109C77.7721 27.5109 78.2966 27.6072 78.7775 27.8C79.2583 27.9928 79.6662 28.2745 80.0014 28.6452L79.4878 29.1678C78.8904 28.5525 78.1364 28.2448 77.2257 28.2448C76.621 28.2448 76.071 28.3857 75.5756 28.6674C75.0802 28.9491 74.6905 29.3347 74.4063 29.824C74.1295 30.3133 73.9911 30.8619 73.9911 31.4698C73.9911 32.0778 74.1295 32.6264 74.4063 33.1157C74.6905 33.605 75.0802 33.9905 75.5756 34.2722C76.071 34.554 76.621 34.6948 77.2257 34.6948C78.1436 34.6948 78.8977 34.3835 79.4878 33.7607L80.0014 34.2834C79.6662 34.6541 79.2546 34.9395 78.7665 35.1397C78.2857 35.3324 77.7612 35.4288 77.1929 35.4288Z" fill="#8DC73D"/>
<path d="M86.6974 34.6503V35.3621H81.2881V27.5776H86.5334V28.2893H82.0968V31.0584H86.0526V31.759H82.0968V34.6503H86.6974Z" fill="#8DC73D"/>
<path d="M93.3846 35.3621L91.6361 32.8599C91.4394 32.8822 91.2354 32.8933 91.0242 32.8933H88.9697V35.3621H88.1611V27.5776H91.0242C92.0004 27.5776 92.7653 27.8148 93.319 28.2893C93.8727 28.7638 94.1495 29.4162 94.1495 30.2466C94.1495 30.8545 93.9965 31.3697 93.6905 31.7923C93.3918 32.2075 92.962 32.5078 92.4011 32.6931L94.2697 35.3621H93.3846ZM91.0023 32.1927C91.76 32.1927 92.3391 32.0222 92.7398 31.6811C93.1405 31.3401 93.3408 30.8619 93.3408 30.2466C93.3408 29.6164 93.1405 29.1345 92.7398 28.8009C92.3391 28.4598 91.76 28.2893 91.0023 28.2893H88.9697V32.1927H91.0023Z" fill="#8DC73D"/>
<path d="M97.0005 28.2893H94.3122V27.5776H100.497V28.2893H97.8091V35.3621H97.0005V28.2893Z" fill="#8DC73D"/>
<path d="M101.352 27.5776H102.161V35.3621H101.352V27.5776Z" fill="#8DC73D"/>
<path d="M105.021 28.2893V31.3475H108.977V32.0592H105.021V35.3621H104.213V27.5776H109.458V28.2893H105.021Z" fill="#8DC73D"/>
<path d="M110.691 27.5776H111.499V35.3621H110.691V27.5776Z" fill="#8DC73D"/>
<path d="M118.96 34.6503V35.3621H113.551V27.5776H118.796V28.2893H114.36V31.0584H118.316V31.759H114.36V34.6503H118.96Z" fill="#8DC73D"/>
<path d="M120.424 27.5776H123.538C124.347 27.5776 125.061 27.7444 125.68 28.078C126.3 28.4042 126.78 28.8639 127.123 29.457C127.465 30.0427 127.636 30.7136 127.636 31.4698C127.636 32.226 127.465 32.9007 127.123 33.4938C126.78 34.0795 126.3 34.5391 125.68 34.8728C125.061 35.199 124.347 35.3621 123.538 35.3621H120.424V27.5776ZM123.495 34.6503C124.165 34.6503 124.751 34.5169 125.254 34.25C125.757 33.9757 126.147 33.6013 126.423 33.1268C126.7 32.6449 126.839 32.0926 126.839 31.4698C126.839 30.8471 126.7 30.2985 126.423 29.824C126.147 29.3421 125.757 28.9677 125.254 28.7008C124.751 28.4265 124.165 28.2893 123.495 28.2893H121.233V34.6503H123.495Z" fill="#8DC73D"/>
<path d="M134.301 27.5776C135.277 27.5776 136.042 27.8148 136.596 28.2893C137.15 28.7638 137.426 29.4162 137.426 30.2466C137.426 31.0769 137.15 31.7293 136.596 32.2038C136.042 32.6709 135.277 32.9044 134.301 32.9044H132.247V35.3621H131.438V27.5776H134.301ZM134.279 32.1816C135.037 32.1816 135.616 32.0147 136.017 31.6811C136.417 31.3401 136.618 30.8619 136.618 30.2466C136.618 29.6164 136.417 29.1345 136.017 28.8009C135.616 28.4598 135.037 28.2893 134.279 28.2893H132.247V32.1816H134.279Z" fill="#8DC73D"/>
<path d="M143.961 35.3621L142.213 32.8599C142.016 32.8822 141.812 32.8933 141.601 32.8933H139.547V35.3621H138.738V27.5776H141.601C142.577 27.5776 143.342 27.8148 143.896 28.2893C144.449 28.7638 144.726 29.4162 144.726 30.2466C144.726 30.8545 144.573 31.3697 144.267 31.7923C143.969 32.2075 143.539 32.5078 142.978 32.6931L144.847 35.3621H143.961ZM141.579 32.1927C142.337 32.1927 142.916 32.0222 143.317 31.6811C143.717 31.3401 143.918 30.8619 143.918 30.2466C143.918 29.6164 143.717 29.1345 143.317 28.8009C142.916 28.4598 142.337 28.2893 141.579 28.2893H139.547V32.1927H141.579Z" fill="#8DC73D"/>
<path d="M146.198 27.5776H147.006V35.3621H146.198V27.5776Z" fill="#8DC73D"/>
<path d="M155.333 27.5776L151.945 35.3621H151.147L147.76 27.5776H148.634L151.563 34.339L154.513 27.5776H155.333Z" fill="#8DC73D"/>
<path d="M160.568 33.2825H156.307L155.389 35.3621H154.547L158.044 27.5776H158.842L162.339 35.3621H161.486L160.568 33.2825ZM160.273 32.6153L158.438 28.4339L156.602 32.6153H160.273Z" fill="#8DC73D"/>
<path d="M166.382 35.4288C165.625 35.4288 164.94 35.2583 164.328 34.9172C163.723 34.5762 163.246 34.1054 162.896 33.5049C162.554 32.897 162.383 32.2186 162.383 31.4698C162.383 30.721 162.554 30.0464 162.896 29.4459C163.246 28.8379 163.727 28.3635 164.339 28.0224C164.951 27.6814 165.636 27.5109 166.393 27.5109C166.962 27.5109 167.486 27.6072 167.967 27.8C168.448 27.9928 168.856 28.2745 169.191 28.6452L168.677 29.1678C168.08 28.5525 167.326 28.2448 166.415 28.2448C165.81 28.2448 165.26 28.3857 164.765 28.6674C164.27 28.9491 163.88 29.3347 163.596 29.824C163.319 30.3133 163.181 30.8619 163.181 31.4698C163.181 32.0778 163.319 32.6264 163.596 33.1157C163.88 33.605 164.27 33.9905 164.765 34.2722C165.26 34.554 165.81 34.6948 166.415 34.6948C167.333 34.6948 168.087 34.3835 168.677 33.7607L169.191 34.2834C168.856 34.6541 168.444 34.9395 167.956 35.1397C167.475 35.3324 166.951 35.4288 166.382 35.4288Z" fill="#8DC73D"/>
<path d="M172.94 32.6709V35.3621H172.142V32.6709L169.083 27.5776H169.946L172.569 31.948L175.191 27.5776H176L172.94 32.6709Z" fill="#8DC73D"/>
<path d="M30.3711 23.7472C30.3711 23.7472 30.4662 6.69543 47.0055 6.69543C63.5447 6.69544 63.6401 23.7472 63.6401 23.7472H60.3617C60.3617 23.7472 60.472 9.90808 47.0055 9.90808C33.539 9.90808 33.5279 23.7472 33.5279 23.7472H30.3711Z" fill="#222222"/>
<path d="M54.412 31.1609C54.412 31.1609 49.5099 35.8956 44.2128 34.25C41.2162 33.3191 36.4419 29.7049 36.4419 23.6236C36.4419 15.208 44.6984 11.1536 51.4979 13.8621C57.0832 16.0869 57.5689 23.6236 57.5689 23.6236L54.412 23.6236C54.412 23.6236 54.1481 19.0029 50.8908 17.1983C46.8307 14.9488 39.5988 16.0196 39.5988 23.6236C39.5988 28.2635 43.008 30.014 44.9413 30.7902C48.7181 32.3066 52.3479 29.0603 52.3479 29.0603L54.412 31.1609Z" fill="white"/>
<path d="M51.4984 23.7472C51.4984 23.1306 51.3791 22.52 51.1472 21.9503C50.9153 21.3806 50.5755 20.863 50.147 20.427C49.7186 19.991 49.2099 19.6451 48.6501 19.4092C48.0903 19.1732 47.4904 19.0518 46.8845 19.0518C46.2785 19.0518 45.6786 19.1732 45.1188 19.4092C44.559 19.6451 44.0503 19.991 43.6219 20.427C43.1935 20.863 42.8536 21.3806 42.6217 21.9503C42.3899 22.52 42.2705 23.1306 42.2705 23.7472L46.8845 23.7472H51.4984Z" fill="white"/>
</svg>
