<svg width="201" height="47" viewBox="0 0 201 47" fill="none" xmlns="http://www.w3.org/2000/svg">
<rect width="201" height="47" fill="white"/>
<path d="M93.58 22.126C92.704 22.126 91.912 21.976 91.204 21.676C90.508 21.376 89.956 20.944 89.548 20.38C89.14 19.816 88.93 19.15 88.918 18.382H91.618C91.654 18.898 91.834 19.306 92.158 19.606C92.494 19.906 92.95 20.056 93.526 20.056C94.114 20.056 94.576 19.918 94.912 19.642C95.248 19.354 95.416 18.982 95.416 18.526C95.416 18.154 95.302 17.848 95.074 17.608C94.846 17.368 94.558 17.182 94.21 17.05C93.874 16.906 93.406 16.75 92.806 16.582C91.99 16.342 91.324 16.108 90.808 15.88C90.304 15.64 89.866 15.286 89.494 14.818C89.134 14.338 88.954 13.702 88.954 12.91C88.954 12.166 89.14 11.518 89.512 10.966C89.884 10.414 90.406 9.994 91.078 9.706C91.75 9.406 92.518 9.256 93.382 9.256C94.678 9.256 95.728 9.574 96.532 10.21C97.348 10.834 97.798 11.71 97.882 12.838H95.11C95.086 12.406 94.9 12.052 94.552 11.776C94.216 11.488 93.766 11.344 93.202 11.344C92.71 11.344 92.314 11.47 92.014 11.722C91.726 11.974 91.582 12.34 91.582 12.82C91.582 13.156 91.69 13.438 91.906 13.666C92.134 13.882 92.41 14.062 92.734 14.206C93.07 14.338 93.538 14.494 94.138 14.674C94.954 14.914 95.62 15.154 96.136 15.394C96.652 15.634 97.096 15.994 97.468 16.474C97.84 16.954 98.026 17.584 98.026 18.364C98.026 19.036 97.852 19.66 97.504 20.236C97.156 20.812 96.646 21.274 95.974 21.622C95.302 21.958 94.504 22.126 93.58 22.126ZM104.549 22.126C103.673 22.126 102.881 21.976 102.173 21.676C101.477 21.376 100.925 20.944 100.517 20.38C100.109 19.816 99.8988 19.15 99.8868 18.382H102.587C102.623 18.898 102.803 19.306 103.127 19.606C103.463 19.906 103.919 20.056 104.495 20.056C105.083 20.056 105.545 19.918 105.881 19.642C106.217 19.354 106.385 18.982 106.385 18.526C106.385 18.154 106.271 17.848 106.043 17.608C105.815 17.368 105.527 17.182 105.179 17.05C104.843 16.906 104.375 16.75 103.775 16.582C102.959 16.342 102.293 16.108 101.777 15.88C101.273 15.64 100.835 15.286 100.463 14.818C100.103 14.338 99.9228 13.702 99.9228 12.91C99.9228 12.166 100.109 11.518 100.481 10.966C100.853 10.414 101.375 9.994 102.047 9.706C102.719 9.406 103.487 9.256 104.351 9.256C105.647 9.256 106.697 9.574 107.501 10.21C108.317 10.834 108.767 11.71 108.851 12.838H106.079C106.055 12.406 105.869 12.052 105.521 11.776C105.185 11.488 104.735 11.344 104.171 11.344C103.679 11.344 103.283 11.47 102.983 11.722C102.695 11.974 102.551 12.34 102.551 12.82C102.551 13.156 102.659 13.438 102.875 13.666C103.103 13.882 103.379 14.062 103.703 14.206C104.039 14.338 104.507 14.494 105.107 14.674C105.923 14.914 106.589 15.154 107.105 15.394C107.621 15.634 108.065 15.994 108.437 16.474C108.809 16.954 108.995 17.584 108.995 18.364C108.995 19.036 108.821 19.66 108.473 20.236C108.125 20.812 107.615 21.274 106.943 21.622C106.271 21.958 105.473 22.126 104.549 22.126ZM113.7 20.002H117.84V22H111.18V9.436H113.7V20.002ZM93.58 38.126C92.704 38.126 91.912 37.976 91.204 37.676C90.508 37.376 89.956 36.944 89.548 36.38C89.14 35.816 88.93 35.15 88.918 34.382H91.618C91.654 34.898 91.834 35.306 92.158 35.606C92.494 35.906 92.95 36.056 93.526 36.056C94.114 36.056 94.576 35.918 94.912 35.642C95.248 35.354 95.416 34.982 95.416 34.526C95.416 34.154 95.302 33.848 95.074 33.608C94.846 33.368 94.558 33.182 94.21 33.05C93.874 32.906 93.406 32.75 92.806 32.582C91.99 32.342 91.324 32.108 90.808 31.88C90.304 31.64 89.866 31.286 89.494 30.818C89.134 30.338 88.954 29.702 88.954 28.91C88.954 28.166 89.14 27.518 89.512 26.966C89.884 26.414 90.406 25.994 91.078 25.706C91.75 25.406 92.518 25.256 93.382 25.256C94.678 25.256 95.728 25.574 96.532 26.21C97.348 26.834 97.798 27.71 97.882 28.838H95.11C95.086 28.406 94.9 28.052 94.552 27.776C94.216 27.488 93.766 27.344 93.202 27.344C92.71 27.344 92.314 27.47 92.014 27.722C91.726 27.974 91.582 28.34 91.582 28.82C91.582 29.156 91.69 29.438 91.906 29.666C92.134 29.882 92.41 30.062 92.734 30.206C93.07 30.338 93.538 30.494 94.138 30.674C94.954 30.914 95.62 31.154 96.136 31.394C96.652 31.634 97.096 31.994 97.468 32.474C97.84 32.954 98.026 33.584 98.026 34.364C98.026 35.036 97.852 35.66 97.504 36.236C97.156 36.812 96.646 37.274 95.974 37.622C95.302 37.958 94.504 38.126 93.58 38.126ZM102.731 27.47V30.62H106.961V32.618H102.731V35.948H107.501V38H100.211V25.418H107.501V27.47H102.731ZM109.179 31.7C109.179 30.464 109.455 29.36 110.007 28.388C110.571 27.404 111.333 26.642 112.293 26.102C113.265 25.55 114.351 25.274 115.551 25.274C116.955 25.274 118.185 25.634 119.241 26.354C120.297 27.074 121.035 28.07 121.455 29.342H118.557C118.269 28.742 117.861 28.292 117.333 27.992C116.817 27.692 116.217 27.542 115.533 27.542C114.801 27.542 114.147 27.716 113.571 28.064C113.007 28.4 112.563 28.88 112.239 29.504C111.927 30.128 111.771 30.86 111.771 31.7C111.771 32.528 111.927 33.26 112.239 33.896C112.563 34.52 113.007 35.006 113.571 35.354C114.147 35.69 114.801 35.858 115.533 35.858C116.217 35.858 116.817 35.708 117.333 35.408C117.861 35.096 118.269 34.64 118.557 34.04H121.455C121.035 35.324 120.297 36.326 119.241 37.046C118.197 37.754 116.967 38.108 115.551 38.108C114.351 38.108 113.265 37.838 112.293 37.298C111.333 36.746 110.571 35.984 110.007 35.012C109.455 34.04 109.179 32.936 109.179 31.7ZM126.091 25.436V33.212C126.091 34.064 126.313 34.718 126.757 35.174C127.201 35.618 127.825 35.84 128.629 35.84C129.445 35.84 130.075 35.618 130.519 35.174C130.963 34.718 131.185 34.064 131.185 33.212V25.436H133.723V33.194C133.723 34.262 133.489 35.168 133.021 35.912C132.565 36.644 131.947 37.196 131.167 37.568C130.399 37.94 129.541 38.126 128.593 38.126C127.657 38.126 126.805 37.94 126.037 37.568C125.281 37.196 124.681 36.644 124.237 35.912C123.793 35.168 123.571 34.262 123.571 33.194V25.436H126.091ZM142.638 38L139.866 33.104H138.678V38H136.158V25.436H140.874C141.846 25.436 142.674 25.61 143.358 25.958C144.042 26.294 144.552 26.756 144.888 27.344C145.236 27.92 145.41 28.568 145.41 29.288C145.41 30.116 145.17 30.866 144.69 31.538C144.21 32.198 143.496 32.654 142.548 32.906L145.554 38H142.638ZM138.678 31.214H140.784C141.468 31.214 141.978 31.052 142.314 30.728C142.65 30.392 142.818 29.93 142.818 29.342C142.818 28.766 142.65 28.322 142.314 28.01C141.978 27.686 141.468 27.524 140.784 27.524H138.678V31.214ZM150.209 27.47V30.62H154.439V32.618H150.209V35.948H154.979V38H147.689V25.418H154.979V27.47H150.209Z" fill="#666666"/>
<path fill-rule="evenodd" clip-rule="evenodd" d="M64 2C62.1271 2 58.9976 2.71219 56.0526 3.505C53.0397 4.31125 50.0024 5.26531 48.2164 5.84312C47.4697 6.08729 46.8077 6.53506 46.3064 7.13501C45.8052 7.73496 45.485 8.46274 45.3827 9.23475C43.765 21.2667 47.5189 30.1838 52.0734 36.0829C54.0049 38.6063 56.3078 40.8285 58.9053 42.6753C59.953 43.409 60.9247 43.9707 61.7499 44.355C62.5099 44.7098 63.3269 45 64 45C64.6731 45 65.4874 44.7098 66.2501 44.355C67.2449 43.8763 68.1965 43.3143 69.0947 42.6753C71.6923 40.8286 73.9952 38.6064 75.9266 36.0829C80.4811 30.1838 84.235 21.2667 82.6173 9.23475C82.5152 8.46237 82.1951 7.73416 81.6938 7.13375C81.1926 6.53334 80.5305 6.08508 79.7836 5.84044C77.1909 4.99875 74.5781 4.21915 71.9474 3.50231C69.0024 2.71487 65.8729 2 64 2ZM64 15.4375C64.9615 15.4361 65.8925 15.7716 66.6281 16.3847C67.3636 16.9978 67.8563 17.8489 68.0189 18.7872C68.1814 19.7255 68.0034 20.6905 67.5162 21.5113C67.029 22.3321 66.2642 22.9556 65.3571 23.2716L66.4021 28.6197C66.4402 28.8142 66.4343 29.0146 66.3849 29.2066C66.3355 29.3986 66.2438 29.5775 66.1165 29.7303C65.9891 29.8831 65.8292 30.0061 65.6482 30.0906C65.4672 30.175 65.2695 30.2188 65.0694 30.2188H62.9306C62.7307 30.2184 62.5334 30.1743 62.3527 30.0897C62.172 30.0051 62.0124 29.882 61.8854 29.7292C61.7583 29.5765 61.6669 29.3978 61.6177 29.206C61.5684 29.0142 61.5626 28.814 61.6006 28.6197L62.6429 23.2716C61.7358 22.9556 60.971 22.3321 60.4838 21.5113C59.9966 20.6905 59.8186 19.7255 59.9811 18.7872C60.1437 17.8489 60.6364 16.9978 61.3719 16.3847C62.1075 15.7716 63.0385 15.4361 64 15.4375Z" fill="#8DC73D"/>
</svg>
